Coordinates
version=1
nRows=5
nColumns=40
inDegrees=yes

Units are S.I. units (second, meters, Newtons, ...)
Angles are in degrees.

endheader
time	pelvis_tilt	pelvis_list	pelvis_rotation	pelvis_tx	pelvis_ty	pelvis_tz	hip_flexion_r	hip_adduction_r	hip_rotation_r	knee_angle_r	knee_angle_r_beta	ankle_angle_r	subtalar_angle_r	mtp_angle_r	hip_flexion_l	hip_adduction_l	hip_rotation_l	knee_angle_l	knee_angle_l_beta	ankle_angle_l	subtalar_angle_l	mtp_angle_l	lumbar_extension	lumbar_bending	lumbar_rotation	arm_flex_r	arm_add_r	arm_rot_r	elbow_flex_r	pro_sup_r	wrist_flex_r	wrist_dev_r	arm_flex_l	arm_add_l	arm_rot_l	elbow_flex_l	pro_sup_l	wrist_flex_l	wrist_dev_l
     51.32750000	     -1.66486731	     -2.86074129	     -1.86866776	      1.09127752	      0.93067074	      0.46197687	     17.08392568	      0.06016838	     -9.94230545	     21.53867481	     21.53867481	      7.76405024	     -4.40758392	     -2.29008498	      1.96342666	     -8.65759229	     -9.83176672	     29.74416344	     29.74416344	     15.85386724	     -6.71834015	     -6.92312643	     -9.52454246	      3.04079604	     -0.22992298	     -3.26201736	    -14.40463208	     -5.54428030	     41.09970759	     44.79341200	      0.00000000	      0.00000000	     10.80465412	    -13.87844661	    -12.92619376	     62.78616673	     46.43058427	      0.00000000	      0.00000000
     51.34085714	     -1.67106937	     -3.05571819	     -1.54253055	      1.09160290	      0.93117559	      0.46520747	     16.42664842	      0.40959574	    -10.49872720	     21.13805801	     21.13805801	      8.08157653	     -3.96193851	     -2.36647786	      3.63546949	     -9.46651698	     -8.88130517	     33.27165260	     33.27165260	     14.68629232	     -7.84235704	     -7.61142044	     -9.57816137	      3.19913015	     -0.15697791	     -1.91038983	    -14.56750577	     -5.41768845	     42.07641730	     44.76731571	      0.00000000	      0.00000000	     10.41889740	    -13.59477678	    -12.76118627	     62.13270631	     46.41611572	      0.00000000	      0.00000000
     51.35421429	     -1.73406878	     -3.22282800	     -1.16154308	      1.09169805	      0.93141407	      0.46813437	     15.88773066	      0.66572010	    -11.22849600	     20.82982236	     20.82982236	      8.39667252	     -3.34651898	     -2.50245948	      5.57946018	    -10.16741552	     -7.76325409	     37.00659900	     37.00659900	     13.28073538	     -9.19394991	     -8.21949883	     -9.52560055	      3.41803058	     -0.25611330	     -0.51316889	    -14.76143776	     -5.25731028	     43.36032123	     44.72836415	      0.00000000	      0.00000000	      9.97504594	    -13.36434498	    -12.63445146	     61.12251301	     46.39955879	      0.00000000	      0.00000000
     51.36757143	     -1.77317910	     -3.42047611	     -0.75986350	      1.09154418	      0.93153634	      0.47086017	     15.36989525	      0.93215790	    -11.99618714	     20.57848353	     20.57848353	      8.72187057	     -2.70457015	     -2.65550395	      7.61615265	    -10.81983130	     -6.56864946	     40.77227097	     40.77227097	     11.77627088	    -10.56987173	     -8.53156739	     -9.54865819	      3.66689407	     -0.29609853	      0.91796302	    -15.01585254	     -5.07946604	     44.71889392	     44.68542544	      0.00000000	      0.00000000	      9.63067240	    -13.07877960	    -12.52413913	     60.02574388	     46.38259613	      0.00000000	      0.00000000
     51.38092857	     -1.82010438	     -3.65043423	     -0.35457175	      1.09119265	      0.93151734	      0.47344131	     14.89584777	      1.22915151	    -12.76401529	     20.35895348	     20.35895348	      9.03380943	     -2.06344947	     -2.80520024	      9.73987513	    -11.42404494	     -5.35551398	     44.47123471	     44.47123471	     10.30254390	    -11.88168699	     -8.47835266	     -9.57854182	      3.90772560	     -0.30204253	      2.38007302	    -15.33093475	     -4.89082085	     46.11763902	     44.64055337	      0.00000000	      0.00000000	      9.31300066	    -12.73388237	    -12.41456792	     58.82428022	     46.36366883	      0.00000000	      0.00000000
